# xmcd CD database file
#
# Track frame offsets:
#	150
#	12567
#	23583
#	36023
#	49721
#	62855
#	82742
#	97584
#	110255
#	122930
#	137318
#	151257
#	164747
#	179145
#	190994
#	203474
#	215029
#	231133
#	244230
#	257009
#	274426
#	290122
#	302014
#	316220
#
# Disc length: 4406 seconds
#
# Revision: 1
# Processed by: cddbd v1.5.2PL0 Copyright (c) Steve Scherf et al.
# Submitted via: CDex 1.51
#
DISCID=53113418
DTITLE=Villa Mix - Villa Mix
DYEAR=1900
DGENRE=Country
TTITLE0=Nocaute
TTITLE1=Cê que sabe
TTITLE2=A Rosa e o Beija Flor
TTITLE3=Amor de Geladeira
TTITLE4=Eu tô de Boa
TTITLE5=31/12
TTITLE6=Maus Bocados
TTITLE7=Ser Humano ou Anjo
TTITLE8=Ô Sofrência
TTITLE9=Abelha sem Mel
TTITLE10=Calma
TTITLE11=Perdeu o Cara Errado
TTITLE12=Ciumento Mesmo
TTITLE13=Vai Entender
TTITLE14=100% Muito Louco
TTITLE15=Logo Eu
TTITLE16=É com ela que eu estou
TTITLE17=GoodBye
TTITLE18=Canção Perfeita
TTITLE19=Vou Pagar Pra ver
TTITLE20=Amor pra Recomençar
TTITLE21=Hoje eu tô Terrivel
TTITLE22=Mundo Paralelo
TTITLE23=Veja só no Que Deu
EXTD=
EXTT0=
EXTT1=
EXTT2=
EXTT3=
EXTT4=
EXTT5=
EXTT6=
EXTT7=
EXTT8=
EXTT9=
EXTT10=
EXTT11=
EXTT12=
EXTT13=
EXTT14=
EXTT15=
EXTT16=
EXTT17=
EXTT18=
EXTT19=
EXTT20=
EXTT21=
EXTT22=
EXTT23=
PLAYORDER=
